<svg width="544" height="338" viewBox="0 0 544 338" fill="none" xmlns="http://www.w3.org/2000/svg">
<path d="M568.059 -70.7372L157.815 -180.662L83.1144 98.1264L493.358 208.051L568.059 -70.7372Z" fill="#F9F8FF"/>
<path opacity="0.05" d="M246.838 35.3695L246.814 35.3644L251.029 -6.63299L193.141 -19.408L191.794 -14.3812C191.794 -14.3812 196.842 -12.4364 196.888 -9.85974C196.934 -7.28281 190.709 -10.3319 190.709 -10.3319L190.586 -6.02388C196.171 -5.51369 195.92 -3.2132 195.92 -3.2132C195.643 0.658424 189.487 -1.18801 189.487 -1.18801L188.29 4.0155C189.52 2.37251 194.562 4.9068 193.905 7.2327C193.248 9.5586 188.273 7.75984 188.273 7.75984L187.642 12.3258C189.203 10.1796 193.694 12.5661 192.55 15.2193C191.406 17.8724 187.036 15.3203 187.036 15.3203L186.454 19.7025C188.832 19.3848 190.785 20.6223 189.794 22.7322L187.871 22.3064L187.514 23.6402C186.639 23.2748 185.898 22.5132 185.898 22.5132L185.809 27.0264L186.576 27.1411L186.524 27.3332C186.524 27.3332 191.669 29.3041 191.728 31.8843C191.787 34.4646 185.439 31.3835 185.439 31.3835L185.333 35.6963C191.019 36.2337 190.775 38.5358 190.775 38.5358C190.512 42.4111 184.239 40.5333 184.239 40.5333L183.046 45.738C184.289 44.0986 189.432 46.6601 188.776 48.986C188.118 51.3116 183.046 49.4871 183.046 49.4871L182.426 54.0558C184.005 51.9143 188.585 54.3249 187.434 56.9761C186.282 59.6273 181.824 57.0515 181.824 57.0515L181.253 61.4364C183.75 61.1194 185.804 62.4588 184.568 64.6923C183.333 66.9259 180.701 64.2483 180.701 64.2483L180.632 68.7668L242.67 78.2156L246.838 35.3695Z" fill="#8662EA"/>
<path d="M247.412 33.2273L247.388 33.2222L251.603 -8.7752L193.715 -21.5502L192.368 -16.5234C192.368 -16.5234 197.416 -14.5786 197.461 -12.0019C197.508 -9.42501 191.283 -12.4731 191.283 -12.4731L191.16 -8.16502C196.744 -7.65483 196.494 -5.35438 196.494 -5.35438C196.217 -1.48275 190.061 -3.32918 190.061 -3.32918L188.864 1.87432C190.094 0.230294 195.136 2.76566 194.479 5.09156C193.822 7.41746 188.847 5.61869 188.847 5.61869L188.215 10.1847C189.777 8.03841 194.268 10.4249 193.123 13.0781C191.979 15.7313 187.61 13.1792 187.61 13.1792L187.028 17.5613C189.406 17.2436 191.359 18.4811 190.368 20.591L188.445 20.1653L188.088 21.499C187.213 21.1336 186.472 20.3721 186.472 20.3721L186.383 24.8853L187.149 24.9999L187.098 25.1921C187.098 25.1921 192.243 27.1629 192.302 29.7432C192.36 32.3235 186.013 29.2413 186.013 29.2413L185.907 33.5542C191.593 34.0915 191.349 36.3936 191.349 36.3936C191.085 40.2689 184.813 38.3911 184.813 38.3911L183.62 43.5957C184.863 41.9564 190.006 44.5178 189.35 46.8437C188.692 49.1694 183.62 47.3448 183.62 47.3448L183 51.9136C184.579 49.7721 189.159 52.1827 188.008 54.8339C186.856 57.4852 182.398 54.9093 182.398 54.9093L181.827 59.2942C184.324 58.9772 186.378 60.3166 185.142 62.5501C183.907 64.7837 181.275 62.1061 181.275 62.1061L181.206 66.6236L243.244 76.0723L247.412 33.2273Z" fill="#E1DBFC"/>
<path d="M191.681 68.5694C191.604 68.56 191.677 67.3169 191.875 65.0775C192.099 62.7844 192.413 59.5628 192.798 55.6038C193.616 47.6098 194.763 36.5673 196.165 24.3831C197.567 12.1945 199.024 1.18026 200.259 -6.76557C200.872 -10.7388 201.413 -13.9477 201.83 -16.1575C202.244 -18.3681 202.51 -19.5843 202.587 -19.5715C202.664 -19.5587 202.545 -18.3201 202.263 -16.0907C201.969 -13.8074 201.556 -10.597 201.048 -6.65393C200.015 1.31261 198.684 12.3305 197.283 24.5126C195.882 36.6915 194.609 47.7215 193.589 55.6948C193.08 59.6813 192.645 62.9051 192.31 65.1291C191.979 67.3529 191.758 68.5788 191.681 68.5694Z" fill="#F191A5"/>
<path d="M217.584 17.2267L219.69 17.4664L220.741 9.49334L218.89 8.99744L217.584 17.2267Z" fill="#3F2C7E"/>
<path d="M221.071 17.5924L223.135 18.1454L225.5 5.11114L223.65 4.61523L221.071 17.5924Z" fill="#3F2C7E"/>
<path d="M225.073 17.88L227.228 17.9401L230.757 0.717581L228.906 0.22168L225.073 17.88Z" fill="#3F2C7E"/>
<path d="M214.243 17.0949L216.12 17.2597L216.946 10.8597L215.093 10.8681L214.243 17.0949Z" fill="#3F2C7E"/>
<path d="M238.297 21.4233C238.275 21.7333 231.557 21.5148 223.294 20.9362C215.028 20.3568 208.347 19.6356 208.368 19.3247C208.39 19.0147 215.106 19.2326 223.373 19.8123C231.636 20.392 238.318 21.1134 238.297 21.4233Z" fill="#3F2C7E"/>
<path d="M210.564 23.6685C210.246 23.6527 210.388 18.1151 211.117 11.3599C211.871 4.61932 212.092 -0.854752 212.404 -0.862876C212.714 -0.876017 212.996 4.69123 212.238 11.4722C211.51 18.2287 210.867 23.6849 210.564 23.6685Z" fill="#3F2C7E"/>
<path d="M241.651 35.4988C241.627 35.809 231.98 35.284 220.108 34.326C208.232 33.3682 198.629 32.3409 198.654 32.0307C198.679 31.7206 208.323 32.2461 220.199 33.2042C232.071 34.1608 241.676 35.1887 241.651 35.4988Z" fill="#3F2C7E"/>
<path d="M230.044 38.542C230.031 38.8531 223.091 38.8271 214.544 38.4847C205.994 38.1416 199.075 37.6118 199.087 37.3018C199.1 36.9906 206.039 37.0174 214.589 37.3595C223.136 37.7008 230.057 38.2308 230.044 38.542Z" fill="#3F2C7E"/>
<path d="M217.66 43.5198C217.624 43.8326 213.409 43.6054 208.227 43.2087C203.045 42.8073 198.845 42.3863 198.858 42.0718C198.87 41.7648 203.109 41.6827 208.314 42.0858C213.518 42.4849 217.696 43.2149 217.66 43.5198Z" fill="#3F2C7E"/>
<path d="M231.795 44.4919C231.77 44.8018 229.586 44.8681 226.92 44.6407C224.253 44.413 222.113 43.9773 222.14 43.6667C222.167 43.3572 224.349 43.2902 227.016 43.5179C229.682 43.7466 231.822 44.1824 231.795 44.4919Z" fill="#3F2C7E"/>
<path d="M241.093 50.1411C241.082 50.2938 238.759 50.2747 235.012 50.0745C231.267 49.8735 226.098 49.4792 220.405 48.8864C214.711 48.292 209.572 47.6122 205.865 47.0355C202.158 46.4596 199.881 45.9985 199.902 45.8473C199.923 45.6908 202.238 45.8732 205.965 46.2462C209.79 46.6455 214.887 47.1781 220.521 47.7665C226.153 48.3523 231.249 48.8826 235.075 49.2808C238.802 49.684 241.104 49.9839 241.093 50.1411Z" fill="#3F2C7E"/>
<path d="M224.595 52.0586C224.595 52.3586 218.72 52.5832 211.503 52.0107C204.282 51.4517 198.515 50.316 198.562 50.0197C198.609 49.701 204.416 50.3335 211.591 50.888C218.762 51.4561 224.598 51.7371 224.595 52.0586Z" fill="#3F2C7E"/>
<path d="M215.696 -7.04879C215.634 -7.18413 217.297 -8.20947 220.713 -8.93073C222.415 -9.28161 224.562 -9.50228 227.056 -9.32211C229.542 -9.14284 232.39 -8.51188 235.253 -7.09092C238.099 -5.6713 240.943 -3.46302 243.156 -0.383822C245.381 2.65047 246.92 6.67616 246.901 10.9954C246.909 15.2739 245.51 19.887 242.337 23.481C239.175 27.0664 234.489 29.281 229.578 29.8121C224.616 30.3734 219.749 29.1052 215.706 26.9707C211.644 24.803 208.259 21.8914 205.702 18.4937C204.441 16.7834 203.414 14.9131 202.814 12.9254C202.201 10.9466 202.056 8.85929 202.317 6.93327C202.879 3.05383 204.848 -0.109232 207.103 -2.3752C209.384 -4.67325 212.022 -6.02605 214.371 -6.84526C216.739 -7.66598 218.868 -7.97976 220.595 -8.10808C224.063 -8.32619 225.945 -7.89691 225.934 -7.74446C225.928 -7.5119 224.029 -7.56093 220.727 -7.02056C219.084 -6.7332 217.089 -6.27601 214.935 -5.37536C212.793 -4.47504 210.472 -3.11692 208.54 -0.996065C206.613 1.10258 205.006 3.96199 204.635 7.22197C204.468 8.84401 204.626 10.524 205.176 12.1769C205.716 13.8305 206.629 15.4343 207.778 16.9355C210.102 19.9224 213.304 22.6128 216.982 24.524C220.663 26.4261 224.966 27.5031 229.272 27.0145C233.569 26.5517 237.611 24.6303 240.283 21.6443C242.967 18.6661 244.254 14.7034 244.309 10.9804C244.389 7.22845 243.153 3.72926 241.246 0.955777C239.356 -1.84206 236.86 -3.93249 234.331 -5.32763C231.793 -6.72292 229.202 -7.44636 226.892 -7.75643C224.576 -8.07026 222.532 -8.02123 220.879 -7.84734C217.561 -7.48718 215.774 -6.82533 215.696 -7.04879Z" fill="#CABAFA"/>
<path d="M140.857 103.921C140.556 103.841 156.038 45.09 175.431 -27.2858C194.83 -99.6865 210.795 -158.294 211.096 -158.214C211.397 -158.133 195.919 -99.3949 176.519 -26.9941C157.126 45.3805 141.157 104.001 140.857 103.921Z" fill="#3F2C7E"/>
<path d="M403.158 173.538C402.858 173.458 418.674 113.456 438.481 39.5367C458.294 -34.4077 474.594 -94.2666 474.895 -94.186C475.196 -94.1054 459.382 -34.1161 439.569 39.8283C419.762 113.746 403.458 173.619 403.158 173.538Z" fill="#3F2C7E"/>
<path d="M159.275 47.6042C159.195 47.905 149.534 45.5773 137.7 42.4063C125.862 39.2345 116.333 36.4204 116.414 36.1196C116.495 35.8188 126.153 38.1459 137.991 41.318C149.826 44.4901 159.356 47.3045 159.275 47.6042Z" fill="#3F2C7E"/>
<path d="M340.126 -27.6771C340.17 -27.8345 342.4 -27.5011 346.211 -26.0624C348.108 -25.3302 350.388 -24.2839 352.856 -22.7258C355.321 -21.1778 357.971 -19.0683 360.339 -16.185C362.703 -13.3094 364.665 -9.53285 365.482 -5.16887C366.302 -0.844172 365.99 4.22263 363.497 8.74994C360.983 13.2648 356.328 16.6295 351.069 18.0883C345.781 19.6289 339.91 19.2164 334.512 17.5071C331.793 16.6656 329.226 15.541 326.802 14.2635C324.375 12.9876 322.067 11.5162 319.977 9.81866C317.886 8.12114 316.015 6.17578 314.537 3.97082C313.083 1.761 312.009 -0.706267 311.625 -3.25741C311.206 -5.80442 311.408 -8.35173 312.032 -10.6708C312.666 -12.9927 313.705 -15.0918 314.946 -16.9345C317.44 -20.6185 320.748 -23.3087 324.102 -24.9498C327.445 -26.6086 330.724 -27.4371 333.6 -27.8632C336.485 -28.28 338.986 -28.3365 341.015 -28.273C345.077 -28.1126 347.268 -27.6228 347.251 -27.455C347.234 -27.2357 345.004 -27.3553 341.026 -27.1775C339.04 -27.0738 336.615 -26.8583 333.871 -26.313C331.135 -25.761 328.071 -24.8356 325.023 -23.1862C321.987 -21.5673 319.069 -19.0279 316.896 -15.654C315.821 -13.9699 314.94 -12.08 314.426 -10.0449C313.924 -8.01015 313.798 -5.8374 314.182 -3.69832C314.919 0.625237 317.837 4.61646 321.712 7.67195C323.647 9.21919 325.802 10.5826 328.105 11.7827C330.407 12.9863 332.825 14.0383 335.348 14.8183C340.374 16.4047 345.628 16.7624 350.321 15.434C355.017 14.1648 359.052 11.2652 361.242 7.46851C363.428 3.64472 363.834 -0.828257 363.182 -4.76299C362.532 -8.7386 360.867 -12.2128 358.774 -14.9532C356.672 -17.7082 354.26 -19.8142 351.981 -21.4179C349.7 -23.031 347.56 -24.1909 345.774 -25.0579C342.185 -26.7696 340.06 -27.4631 340.126 -27.6771Z" fill="#CABAFA"/>
<path d="M152.338 -193.807L70.1523 112.913L499.114 219.125L585.252 -77.8081L152.338 -193.807ZM491.639 209.104L87.7984 100.895L162.499 -177.893L566.34 -69.6843L491.639 209.104Z" fill="#4A407F"/>
<path opacity="0.1" d="M156.4 -186.701L77.4673 107.88L497.655 212.087L580.501 -73.0621L156.4 -186.701ZM490.295 202.413L94.6742 96.4069L166.419 -171.347L562.038 -65.3408L490.294 202.413L490.295 202.413Z" fill="#8662EA"/>
<path opacity="0.1" d="M417.758 51.5723C417.758 51.5723 416.81 73.2968 409.517 82.3307L406.037 85.7393L377.799 72.4753C377.799 72.4753 392.569 55.0005 393.473 46.5607L417.758 51.5723Z" fill="#8662EA"/>
<path d="M389.742 40.1283C389.742 40.1283 381.947 67.6729 376.351 68.4524L405.23 80.543C405.23 80.543 415.445 67.945 417.759 51.5736L389.742 40.1283Z" fill="#BBF9D1"/>
<path d="M411.523 60.4253C411.389 60.706 406.541 58.6581 400.696 55.8527C394.849 53.0468 390.22 50.5449 390.354 50.2642C390.489 49.9834 395.336 52.0311 401.183 54.837C407.028 57.6434 411.658 60.1456 411.523 60.4253Z" fill="#3F2C7E"/>
<path d="M409.682 64.6245C409.547 64.9052 404.699 62.8573 398.854 60.052C393.007 57.246 388.378 54.7441 388.513 54.4634C388.647 54.1827 393.494 56.2303 399.341 59.0362C405.186 61.8416 409.816 64.3437 409.682 64.6245Z" fill="#3F2C7E"/>
<path d="M408.376 69.2538C408.242 69.5345 403.394 67.4866 397.549 64.6813C391.702 61.8743 387.073 59.3734 387.207 59.0927C387.342 58.8119 392.189 60.8596 398.036 63.6655C403.881 66.4719 408.511 68.9741 408.376 69.2538Z" fill="#3F2C7E"/>
<path opacity="0.1" d="M337.716 36.5269C337.716 36.5269 336.767 58.2524 329.474 67.2853L325.994 70.6939L297.757 57.4299C297.757 57.4299 312.526 39.9551 313.431 31.5153L337.716 36.5269Z" fill="#8662EA"/>
<path d="M309.7 25.0821C309.7 25.0821 301.905 52.6266 296.309 53.4061L325.189 65.4957C325.189 65.4957 335.403 52.8977 337.717 36.5263L309.7 25.0821Z" fill="#FAD04F"/>
<path d="M331.481 45.3799C331.346 45.6606 326.498 43.6127 320.653 40.8073C314.806 38.0014 310.177 35.4995 310.312 35.2188C310.446 34.938 315.293 36.9857 321.14 39.7916C326.985 42.5969 331.615 45.0991 331.481 45.3799Z" fill="#3F2C7E"/>
<path d="M329.639 49.579C329.505 49.8598 324.657 47.8119 318.812 45.0066C312.965 42.2006 308.336 39.6987 308.47 39.418C308.605 39.1373 313.452 41.1849 319.299 43.9908C325.144 46.7961 329.774 49.2983 329.639 49.579Z" fill="#3F2C7E"/>
<path d="M328.334 54.2084C328.199 54.4892 323.351 52.4413 317.506 49.6359C311.659 46.83 307.03 44.3281 307.165 44.0474C307.299 43.7667 312.146 45.8143 317.993 48.6202C323.838 51.4266 328.468 53.9277 328.334 54.2084Z" fill="#3F2C7E"/>
<path opacity="0.2" d="M135.943 -37.3077C135.943 -37.3077 125.851 -6.43956 128.502 0.87974L161.841 1.50009L163.278 -29.1784L135.943 -37.3077Z" fill="#8662EA"/>
<path d="M135.943 -37.3077C135.943 -37.3077 130.343 -7.08089 131.862 -3.42533L164.851 -1.5823C164.851 -1.5823 163.238 -20.7423 166.018 -29.2494L135.943 -37.3077Z" fill="#F191A5"/>
<path opacity="0.2" d="M277.558 -16.9034C277.558 -16.9034 267.466 13.9647 270.116 21.284L303.455 21.9044L304.893 -8.77411L277.558 -16.9034Z" fill="#8662EA"/>
<path d="M277.558 -16.9034C277.558 -16.9034 271.957 13.3234 273.476 16.979L306.465 18.822C306.465 18.822 304.852 -0.337956 307.632 -8.84506L277.558 -16.9034Z" fill="#8662EA"/>
<path d="M301.015 -2.22388C300.968 -1.91622 296.36 -2.36068 290.723 -3.21612C285.085 -4.07212 280.553 -5.01441 280.6 -5.3218C280.647 -5.62946 285.254 -5.18529 290.893 -4.32929C296.528 -3.47413 301.061 -2.53154 301.015 -2.22388Z" fill="#3F2C7E"/>
<path d="M301.143 1.8941C301.125 2.19936 296.45 2.16479 290.729 1.53742C285.005 0.916038 280.435 -0.0578613 280.483 -0.359461C280.532 -0.672065 285.157 -0.19951 290.852 0.418493C296.543 1.04116 301.162 1.57812 301.143 1.8941Z" fill="#3F2C7E"/>
<path d="M295.611 7.1755C295.583 7.48583 292.48 7.45249 288.683 7.10116C284.884 6.7503 281.828 6.21473 281.857 5.90573C281.886 5.59672 284.987 5.62947 288.786 5.98032C292.584 6.33061 295.64 6.86649 295.611 7.1755Z" fill="#3F2C7E"/>
<path opacity="0.2" d="M413.325 -36.6086C413.325 -36.6086 403.232 -5.74048 405.883 1.57882L439.222 2.1992L440.66 -28.4793L413.325 -36.6086Z" fill="#8662EA"/>
<path d="M413.325 -36.6086C413.325 -36.6086 407.724 -6.38179 409.243 -2.72623L442.232 -0.883204C442.232 -0.883204 440.619 -20.0432 443.399 -28.5503L413.325 -36.6086Z" fill="#8662EA"/>
<path opacity="0.2" d="M350.666 90.5654C350.666 90.5654 340.573 121.433 343.224 128.753L376.563 129.373L378.001 98.6947L350.666 90.5654Z" fill="#8662EA"/>
<path d="M350.666 90.5653C350.666 90.5653 345.065 120.792 346.584 124.448L379.573 126.291C379.573 126.291 377.96 107.131 380.74 98.6237L350.666 90.5653Z" fill="#8662EA"/>
<path d="M374.122 105.245C374.075 105.553 369.467 105.108 363.831 104.253C358.192 103.397 353.66 102.454 353.708 102.147C353.755 101.839 358.362 102.284 364 103.14C369.636 103.994 374.169 104.937 374.122 105.245Z" fill="#3F2C7E"/>
<path d="M374.25 109.362C374.232 109.667 369.558 109.632 363.837 109.005C358.113 108.384 353.542 107.41 353.59 107.108C353.639 106.795 358.264 107.268 363.959 107.885C369.65 108.51 374.27 109.047 374.25 109.362Z" fill="#3F2C7E"/>
<path d="M368.719 114.644C368.69 114.955 365.587 114.921 361.79 114.571C357.991 114.22 354.936 113.685 354.964 113.376C354.992 113.066 358.094 113.099 361.893 113.45C365.691 113.799 368.747 114.335 368.719 114.644Z" fill="#3F2C7E"/>
<path opacity="0.2" d="M141.425 55.9608C141.425 55.9608 134.731 87.7396 128.776 92.7529L99.593 76.6207L113.687 49.3334L141.425 55.9608Z" fill="#8662EA"/>
<path d="M141.425 55.9608C141.425 55.9608 131.162 84.9384 128.018 87.3447L98.5275 72.4463C98.5275 72.4463 109.504 56.6597 111.35 47.9024L141.425 55.9608Z" fill="#AB9DFC"/>
<path d="M113.772 56.9458C113.886 56.656 118.282 58.1062 123.591 60.1833C128.902 62.2613 133.114 64.1802 133 64.47C132.887 64.7597 128.491 63.3098 123.181 61.2321C117.872 59.1547 113.659 57.2355 113.772 56.9458Z" fill="#3F2C7E"/>
<path d="M111.601 60.4477C111.742 60.1642 116.011 62.0098 121.252 64.3143C126.492 66.6261 130.735 68.5298 130.621 68.8261C130.512 69.1115 126.066 67.6694 120.798 65.3456C115.53 63.0283 111.464 60.7211 111.601 60.4477Z" fill="#3F2C7E"/>
<path d="M113.751 67.7882C113.881 67.5053 116.795 68.5704 120.259 70.1656C123.724 71.7614 126.427 73.2838 126.297 73.5667C126.166 73.8486 123.253 72.7848 119.788 71.189C116.324 69.5937 113.621 68.0703 113.751 67.7882Z" fill="#3F2C7E"/>
<path opacity="0.2" d="M469.899 -39.8886C469.899 -39.8886 457.138 -10.4442 457.965 -5.22757L488.01 2.10982L497.717 -32.4336L469.899 -39.8875L469.899 -39.8886Z" fill="#8662EA"/>
<path d="M461.025 53.9886C460.881 53.9647 461.177 51.2902 461.945 47.0116C462.71 42.7335 463.991 36.8595 465.781 30.4704C467.579 24.081 469.543 18.3981 471.116 14.3463C472.687 10.2929 473.825 7.85658 473.961 7.90975C474.115 7.97004 473.239 10.5081 471.866 14.6155C470.49 18.7222 468.654 24.4152 466.867 30.7735C465.085 37.1312 463.689 42.9464 462.726 47.1706C461.761 51.3942 461.188 54.0168 461.025 53.9886Z" fill="#3F2C7E"/>
<path d="M474.496 34.9088C474.623 34.9977 473.357 37.0451 471.208 40.2809C469.059 43.5167 466.026 47.9429 462.62 52.7919C462.255 53.3108 461.892 53.8249 461.552 54.308L461.048 55.0248L460.609 54.2691C457.818 49.4646 456.05 44.8107 455.079 41.4018C454.1 37.9872 453.828 35.8345 453.954 35.8077C454.115 35.7714 454.648 37.8576 455.805 41.1687C456.955 44.4779 458.816 48.9974 461.578 53.7026L460.635 53.6636C460.974 53.1802 461.334 52.6646 461.699 52.1453C465.104 47.2974 468.24 42.9435 470.557 39.8243C472.872 36.7035 474.369 34.8188 474.496 34.9088Z" fill="#3F2C7E"/>
<path opacity="0.2" d="M357.679 -12.0504C357.679 -12.0504 350.986 19.7284 345.03 24.7417L315.848 8.60944L329.942 -18.6778L357.679 -12.0504Z" fill="#8662EA"/>
<path d="M357.679 -12.0504C357.679 -12.0504 347.416 16.9271 344.273 19.3334L314.782 4.43508C314.782 4.43508 325.759 -11.3515 327.605 -20.1088L357.679 -12.0504Z" fill="#AB9DFC"/>
<path d="M327.856 -7.56352C327.997 -7.84703 332.265 -6.00141 337.507 -3.69693C342.746 -1.38515 346.989 0.519596 346.875 0.814849C346.766 1.10022 342.32 -0.341854 337.053 -2.66565C331.784 -4.9829 327.719 -7.29016 327.856 -7.56352Z" fill="#3F2C7E"/>
<path d="M330.005 -0.223058C330.136 -0.505963 333.05 0.559152 336.513 2.1544C339.979 3.75021 342.682 5.2726 342.551 5.55551C342.421 5.83737 339.508 4.77358 336.042 3.17777C332.579 1.58147 329.876 0.0590821 330.005 -0.223058Z" fill="#3F2C7E"/>
<path opacity="0.2" d="M477.688 150.333C477.688 150.333 470.993 182.111 465.038 187.125L435.856 170.993L449.95 143.705L477.688 150.333Z" fill="#8662EA"/>
<path d="M477.687 150.333C477.687 150.333 467.424 179.31 464.281 181.717L434.79 166.818C434.79 166.818 445.767 151.032 447.613 142.274L477.687 150.333Z" fill="#AB9DFC"/>
<path d="M450.034 151.317C450.147 151.028 454.544 152.478 459.853 154.555C465.164 156.633 469.376 158.552 469.263 158.842C469.149 159.132 464.754 157.682 459.443 155.604C454.133 153.526 449.92 151.607 450.034 151.317Z" fill="#3F2C7E"/>
<path d="M447.863 154.819C448.004 154.536 452.272 156.382 457.514 158.686C462.753 160.998 466.996 162.901 466.882 163.198C466.773 163.483 462.327 162.041 457.06 159.717C451.791 157.4 447.726 155.092 447.863 154.819Z" fill="#3F2C7E"/>
<path d="M450.012 162.16C450.143 161.877 453.057 162.942 456.52 164.537C459.986 166.133 462.689 167.656 462.558 167.937C462.428 168.219 459.515 167.155 456.049 165.56C452.586 163.964 449.883 162.442 450.012 162.16Z" fill="#3F2C7E"/>
<path opacity="0.2" d="M183.693 21.9056C183.693 21.9056 177 53.6844 171.044 58.6977L141.862 42.5655L155.956 15.2782L183.693 21.9056Z" fill="#8662EA"/>
<path d="M183.693 21.9056C183.693 21.9056 173.43 50.8832 170.287 53.2895L140.796 38.3911C140.796 38.3911 151.773 22.6045 153.619 13.8472L183.693 21.9056Z" fill="#AB9DFC"/>
<path d="M156.039 22.8913C156.153 22.6016 160.55 24.0517 165.859 26.1292C171.17 28.2071 175.382 30.126 175.269 30.4158C175.155 30.7056 170.759 29.2557 165.449 27.178C160.139 25.0992 155.926 23.18 156.039 22.8913Z" fill="#3F2C7E"/>
<path d="M153.87 26.3927C154.011 26.1091 158.279 27.9548 163.521 30.2592C168.762 32.5713 173.004 34.4747 172.889 34.771C172.781 35.0564 168.334 33.6143 163.068 31.2908C157.798 28.9732 153.733 26.666 153.87 26.3927Z" fill="#3F2C7E"/>
<path d="M156.019 33.733C156.15 33.4501 159.064 34.5152 162.527 36.1104C165.993 37.7062 168.696 39.2287 168.565 39.5116C168.435 39.7934 165.522 38.7296 162.056 37.1338C158.592 35.5386 155.888 34.0159 156.019 33.733Z" fill="#3F2C7E"/>
<path opacity="0.2" d="M376.564 83.4965C376.564 83.4965 366.472 114.365 369.123 121.684L402.462 122.304L403.899 91.6258L376.564 83.4965Z" fill="#8662EA"/>
<path d="M376.564 83.4965C376.564 83.4965 370.964 113.723 372.483 117.379L405.472 119.222C405.472 119.222 403.859 100.062 406.639 91.5548L376.564 83.4965Z" fill="#F191A5"/>
<path d="M400.021 98.176C399.974 98.4837 395.366 98.0392 389.729 97.1838C384.091 96.3278 379.56 95.3858 379.607 95.0781C379.653 94.7704 384.26 95.2146 389.899 96.0706C395.534 96.9258 400.067 97.8684 400.021 98.176Z" fill="#3F2C7E"/>
<path d="M400.149 102.294C400.131 102.599 395.456 102.565 389.735 101.937C384.011 101.316 379.44 100.342 379.488 100.04C379.537 99.7276 384.163 100.2 389.857 100.817C395.549 101.442 400.168 101.978 400.149 102.294Z" fill="#3F2C7E"/>
<path d="M394.617 107.577C394.589 107.887 391.486 107.854 387.689 107.503C383.889 107.152 380.835 106.617 380.863 106.308C380.891 105.999 383.993 106.032 387.792 106.382C391.589 106.732 394.647 107.267 394.617 107.577Z" fill="#3F2C7E"/>
<path d="M450.617 62.6113L508.506 75.3866L504.21 118.194L443.286 109.044L443.374 104.531C443.374 104.531 445.948 107.193 447.173 104.957C448.398 102.721 446.386 101.392 443.93 101.721L444.512 97.3386C444.512 97.3386 448.882 99.8907 450.026 97.2375C451.17 94.5843 446.679 92.1978 445.118 94.3441L445.749 89.7781C445.749 89.7781 450.724 91.5768 451.381 89.2509C452.038 86.925 446.996 84.3908 445.766 86.0337L446.963 80.8302C446.963 80.8302 453.12 82.6769 453.396 78.805C453.396 78.805 453.647 76.5045 448.062 75.9944L448.186 71.6863C448.186 71.6863 454.41 74.7354 454.364 72.1574C454.318 69.5805 449.271 67.636 449.271 67.636L450.617 62.6113Z" fill="#E1DBFC"/>
<path opacity="0.41" d="M471.786 64.3377L471.653 66.3941L471.176 68.1717L470.751 69.7603L491.247 75.2521L492.88 69.1558L471.786 64.3377Z" fill="#AB9DFC"/>
<path d="M495.874 82.0789C495.814 82.384 488.469 81.1951 479.469 79.4217C470.466 77.6486 463.22 75.9645 463.28 75.6592C463.34 75.3541 470.684 76.5438 479.687 78.317C488.685 80.09 495.934 81.7736 495.874 82.0789Z" fill="#3F2C7E"/>
<path d="M485.676 84.1867C485.619 84.4929 480.151 83.7407 473.464 82.5064C466.775 81.2727 461.4 80.025 461.457 79.7189C461.513 79.4127 466.98 80.1656 473.669 81.3994C480.356 82.6326 485.732 83.8805 485.676 84.1867Z" fill="#3F2C7E"/>
<path d="M472.198 86.235C472.2 86.1729 473.25 86.0972 475.14 86.317C476.082 86.4341 477.238 86.633 478.538 87.0517C479.83 87.4697 481.284 88.1111 482.665 89.1784C484.034 90.2359 485.362 91.7202 486.121 93.6755C486.901 95.614 486.909 98.0429 485.98 100.204C485.078 102.368 483.381 104.326 481.113 105.526C478.833 106.723 476.069 107.029 473.449 106.49C468.18 105.425 463.952 101.503 462.641 97.0031C461.999 94.7445 462.173 92.3979 463.021 90.4815C463.859 88.5387 465.426 87.1676 466.998 86.4111C468.584 85.6418 470.192 85.3987 471.564 85.4328C472.943 85.4709 474.101 85.7477 475.006 86.0538C475.914 86.3565 476.577 86.6942 477.013 86.9376C477.45 87.1834 477.658 87.3477 477.641 87.3788C477.597 87.4691 476.673 86.9573 474.879 86.4745C473.985 86.2415 472.862 86.0403 471.561 86.0622C470.267 86.0882 468.789 86.3728 467.356 87.1216C465.933 87.8644 464.586 89.113 463.877 90.8508C463.156 92.5718 463.032 94.6921 463.634 96.7119C464.858 100.765 468.821 104.423 473.664 105.385C476.069 105.883 478.575 105.596 480.599 104.547C482.628 103.493 484.19 101.731 485.021 99.7994C485.875 97.8611 485.901 95.7556 485.243 94.0022C484.602 92.2352 483.417 90.8262 482.165 89.799C479.609 87.7406 476.864 87.1216 475.067 86.7475C473.236 86.4012 472.191 86.3272 472.198 86.235Z" fill="#3F2C7E"/>
<path d="M473.813 99.2142C473.515 99.2396 473.042 96.0467 473.39 92.1057C473.724 88.1619 474.737 85.0987 475.026 85.1738C475.34 85.2478 474.836 88.3558 474.512 92.2025C474.172 96.0461 474.135 99.1942 473.813 99.2142Z" fill="#3F2C7E"/>
<path d="M490.483 97.6193C490.503 97.9302 486.48 98.4375 481.498 98.7536C476.515 99.0695 472.461 99.0748 472.442 98.7639C472.422 98.4541 476.444 97.9458 481.428 97.6299C486.408 97.3145 490.463 97.3095 490.483 97.6193Z" fill="#3F2C7E"/>
<path d="M482.627 97.1968C482.376 97.0029 482.91 95.9035 483.529 94.5739C484.159 93.2492 484.664 92.1354 484.974 92.2062C485.272 92.2681 485.235 93.6015 484.549 95.0532C483.868 96.5071 482.864 97.3867 482.627 97.1968Z" fill="#3F2C7E"/>
<path d="M480.679 97.352C480.74 97.3213 480.833 97.363 480.959 97.4784L480.613 97.4855C480.632 96.9274 481.074 95.5985 481.757 94.1137C482.631 92.2163 483.568 90.7851 483.85 90.9154C484.132 91.0448 483.654 92.6886 482.781 94.5849C482.098 96.0697 481.374 97.2696 480.962 97.6461L480.647 97.9345L480.617 97.6531C480.598 97.4826 480.62 97.382 480.679 97.352Z" fill="#3F2C7E"/>
<path d="M478.849 96.6937C478.954 96.6962 479.049 96.9207 479.124 97.3249L478.567 97.2082C478.696 96.4637 479.103 95.1578 479.621 93.6867C480.41 91.4611 481.164 89.6829 481.466 89.7672C481.762 89.8478 481.486 91.7956 480.682 94.0618C480.156 95.5564 479.537 96.8041 479.102 97.4276L478.225 98.687L478.546 97.311C478.64 96.912 478.743 96.6911 478.849 96.6937Z" fill="#3F2C7E"/>
<path d="M476.92 96.6874C476.634 96.5638 477.082 94.6677 477.921 92.4521C478.76 90.2355 479.679 88.5183 479.976 88.6146C480.271 88.7116 479.823 90.6077 478.975 92.8509C478.126 95.0918 477.205 96.8097 476.92 96.6874Z" fill="#3F2C7E"/>
<path d="M474.595 96.7965C474.68 96.8003 474.752 97.0064 474.805 97.3868L474.342 97.3019C474.455 96.337 474.981 94.2961 475.739 91.9782C476.78 88.7883 477.864 86.2812 478.159 86.3783C478.455 86.4753 477.851 89.1378 476.809 92.3277C476.052 94.6459 475.273 96.6041 474.794 97.4488L473.957 98.9292L474.331 97.3639C474.421 96.9906 474.51 96.7917 474.595 96.7965Z" fill="#3F2C7E"/>
<path d="M486.043 102.893C486.096 102.929 485.881 103.425 485.294 104.199C484.709 104.972 483.723 106.006 482.261 106.977C480.798 107.93 478.835 108.804 476.505 109.097C474.18 109.407 471.532 109.028 469.077 107.89C466.629 106.738 464.636 104.95 463.383 102.968C462.111 100.993 461.522 98.9264 461.314 97.1926C461.121 95.4473 461.281 94.0281 461.498 93.0844C461.714 92.1372 461.957 91.6537 462.018 91.6713C462.229 91.7053 461.542 93.787 462.101 97.0778C462.396 98.7006 463.028 100.604 464.247 102.396C465.446 104.19 467.294 105.806 469.552 106.87C471.818 107.918 474.24 108.297 476.387 108.065C478.543 107.851 480.409 107.114 481.842 106.299C484.726 104.617 485.882 102.754 486.043 102.893Z" fill="#3F2C7E"/>
<path d="M501.777 92.4322C501.761 92.7424 499.457 92.8752 496.633 92.7286C493.808 92.5817 491.532 92.2113 491.548 91.901C491.564 91.5908 493.866 91.4577 496.691 91.6046C499.517 91.7505 501.793 92.1219 501.777 92.4322Z" fill="#3F2C7E"/>
<path d="M495.843 95.3814C495.665 95.6305 493.447 94.3568 490.85 92.5201L489.863 91.8213L491.036 91.5166C491.091 91.5023 491.15 91.4868 491.209 91.4713C494.368 90.6542 496.991 90.2364 497.069 90.5372C497.147 90.8381 494.65 91.7439 491.491 92.5611C491.432 92.5766 491.372 92.5919 491.318 92.6054L491.503 91.6016C494.09 93.4543 496.02 95.1324 495.843 95.3814Z" fill="#3F2C7E"/>
<path opacity="0.2" d="M493.752 104.567L491.04 108.192C491.04 108.192 504.394 116.355 504.417 116.122C504.44 115.89 505.267 107.642 505.267 107.642L493.752 104.567Z" fill="#8662EA"/>
<path d="M495.969 100.01L523.532 110.031L518.711 118.072L491.041 108.193L488.445 102.257L495.969 100.01Z" fill="#BBF9D1"/>
<path d="M517.889 113.055C517.847 113.199 516.606 112.975 514.685 112.364C512.76 111.761 510.162 110.775 507.331 109.617C504.498 108.457 501.961 107.361 500.124 106.572C498.291 105.775 497.152 105.288 497.198 105.134C497.24 104.99 498.479 105.214 500.402 105.825C502.327 106.429 504.924 107.414 507.757 108.573C510.589 109.731 513.126 110.828 514.962 111.616C516.796 112.414 517.935 112.902 517.889 113.055Z" fill="#3F2C7E"/>
<path opacity="0.1" d="M236.605 68.5184C236.605 68.5184 235.657 90.2439 228.364 99.2768L224.883 102.685L196.646 89.4214C196.646 89.4214 211.416 71.9465 212.32 63.5068L236.605 68.5184Z" fill="#8662EA"/>
<path d="M208.588 57.0732C208.588 57.0732 200.793 84.6177 195.197 85.3972L224.077 97.4868C224.077 97.4868 234.291 84.8888 236.606 68.5174L208.588 57.0732Z" fill="#BBF9D1"/>
<path d="M230.369 77.3709C230.235 77.6517 225.387 75.6038 219.542 72.7984C213.694 69.9925 209.066 67.4906 209.2 67.2099C209.335 66.9291 214.182 68.9768 220.029 71.7827C225.874 74.588 230.504 77.0902 230.369 77.3709Z" fill="#3F2C7E"/>
<path d="M228.528 81.5692C228.393 81.8499 223.545 79.802 217.7 76.9967C211.853 74.1897 207.224 71.6889 207.359 71.4081C207.493 71.1274 212.34 73.175 218.187 75.9809C224.033 78.7876 228.663 81.2897 228.528 81.5692Z" fill="#3F2C7E"/>
<path d="M227.222 86.1994C227.088 86.4802 222.24 84.4323 216.395 81.6269C210.547 78.821 205.919 76.3191 206.053 76.0384C206.188 75.7576 211.035 77.8052 216.882 80.6112C222.726 83.4176 227.357 85.9187 227.222 86.1994Z" fill="#3F2C7E"/>
<path d="M340.593 69.5314C340.639 69.3165 341.806 69.4198 343.863 69.4975C345.917 69.5879 348.903 69.4813 352.459 68.738C354.238 68.3787 356.138 67.7772 358.121 67.0156C360.072 66.1726 362.132 65.2046 364.106 63.8663C368.089 61.273 371.873 57.4803 374.458 52.6888C376.959 47.8514 377.958 42.5858 377.854 37.8341C377.846 35.4487 377.483 33.2011 377.08 31.1149C376.589 29.048 376.016 27.1402 375.308 25.4676C373.917 22.1126 372.321 19.5873 371.089 17.9406C369.865 16.2873 369.123 15.382 369.274 15.2222C369.386 15.0977 370.39 15.7338 371.921 17.2289C373.459 18.7144 375.405 21.1916 377.123 24.652C377.993 26.3772 378.722 28.3726 379.346 30.5637C379.884 32.7731 380.36 35.1797 380.446 37.7528C380.705 42.8764 379.713 48.6623 376.946 54.0059C374.094 59.3022 369.876 63.3816 365.498 66.0562C363.324 67.436 361.07 68.4002 358.942 69.2014C356.78 69.9207 354.722 70.4436 352.806 70.6984C348.979 71.2299 345.836 71.0202 343.742 70.5868C341.645 70.1636 340.553 69.6941 340.593 69.5314Z" fill="#CABAFA"/>
<path d="M384.629 19.19C384.34 19.9117 377.511 17.8546 369.376 14.5947C368.711 14.3236 368.056 14.0563 367.433 13.8033L369.328 12.7448C367.917 20.4007 366.319 26.201 365.616 26.0798C364.913 25.9586 365.347 19.9586 366.578 12.2721L366.849 10.575L368.471 11.2134C369.097 11.4594 369.755 11.7186 370.423 11.9816C378.558 15.2404 384.919 18.4684 384.629 19.19Z" fill="#CABAFA"/>
<path d="M256.954 81.593C258.661 95.8918 262.371 109.951 267.942 123.231L279.207 120.122L268.119 79.563L256.954 81.593Z" fill="#CABAFA"/>
<path d="M276.244 81.7399L286.236 119.123L297.874 117.124L287.008 81.831L276.244 81.7399Z" fill="#CABAFA"/>
<path d="M295.732 86.9617L304.3 115.363L314.68 111.966L304.292 86.4623L295.732 86.9617Z" fill="#CABAFA"/>
<path d="M314.047 95.3034L320.303 109.598L328.781 107.473L322.177 92.9886L314.047 95.3034Z" fill="#CABAFA"/>
<path d="M336.398 115.96C336.605 116.694 321.972 121.463 303.532 125.889C285.091 130.335 269.892 132.744 269.743 131.997C269.586 131.221 284.49 127.585 302.873 123.153C321.255 118.74 336.185 115.198 336.398 115.96Z" fill="#CABAFA"/>
<path d="M315.144 130.313C315.279 131.079 306.668 133.233 295.914 135.125C285.156 137.018 276.328 137.93 276.193 137.164C276.059 136.399 284.668 134.244 295.426 132.351C306.181 130.46 315.01 129.547 315.144 130.313Z" fill="#CABAFA"/>
<path d="M489.567 130.372C489.445 131.139 477.23 129.847 462.287 127.483C447.339 125.119 435.323 122.581 435.445 121.812C435.567 121.044 447.779 122.337 462.727 124.701C477.67 127.065 489.688 129.604 489.567 130.372Z" fill="#CABAFA"/>
<path d="M460.512 132.019C460.406 132.79 455.235 132.715 448.965 131.854C442.692 130.993 437.694 129.67 437.8 128.899C437.905 128.13 443.075 128.203 449.348 129.064C455.619 129.926 460.619 131.249 460.512 132.019Z" fill="#CABAFA"/>
<path d="M531.771 7.39663C531.825 7.70232 520.575 9.96908 506.645 12.4583C492.709 14.9482 481.372 16.7173 481.318 16.4116C481.263 16.1059 492.511 13.8396 506.447 11.3497C520.377 8.86154 531.716 7.09094 531.771 7.39663Z" fill="#3F2C7E"/>
<path d="M531.894 15.0494C531.901 15.2182 529.165 15.4554 524.762 15.9335C520.358 16.4102 514.288 17.1828 507.644 18.3845C500.998 19.5949 495.044 21.0039 490.753 22.1055C486.462 23.2057 483.817 23.9444 483.765 23.7848C483.741 23.7112 484.373 23.4352 485.539 22.9997C486.704 22.5596 488.411 21.9881 490.538 21.3391C494.791 20.0363 500.755 18.4942 507.441 17.2769C514.127 16.0672 520.252 15.4146 524.692 15.1402C526.912 15.0008 528.712 14.9356 529.957 14.9389C531.201 14.9365 531.89 14.9722 531.894 15.0494Z" fill="#3F2C7E"/>
<path d="M506.298 27.147C506.374 27.4484 501.992 28.8154 496.511 30.2001C491.029 31.5845 486.524 32.463 486.448 32.1606C486.372 31.8593 490.753 30.4919 496.235 29.1075C501.716 27.7238 506.221 26.8454 506.298 27.147Z" fill="#3F2C7E"/>
<path d="M357.076 138.45L350.844 163.644L389.345 173.96L397.48 148.931L357.076 138.45Z" fill="#CABAFA"/>
<path d="M398.155 136.21C398.261 136.323 396.399 138.25 393.304 141.273C390.208 144.295 385.879 148.413 381.051 152.911C377.433 156.281 374.048 159.386 371.219 161.938L370.801 162.315L370.51 161.852C368.769 159.08 368.05 156.427 367.77 154.589C367.496 152.737 367.599 151.673 367.681 151.673C367.793 151.666 367.875 152.714 368.297 154.485C368.724 156.245 369.549 158.754 371.292 161.339L370.583 161.254C373.33 158.612 376.667 155.456 380.284 152.087C385.113 147.589 389.527 143.563 392.762 140.69C395.996 137.817 398.049 136.096 398.155 136.21Z" fill="#3F2C7E"/>
<path opacity="0.05" d="M340.459 197.206L340.435 197.201L344.65 155.204L286.761 142.428L285.414 147.455C285.414 147.455 290.462 149.4 290.507 151.977C290.554 154.553 284.329 151.505 284.329 151.505L284.206 155.813C289.79 156.324 289.54 158.624 289.54 158.624C289.263 162.496 283.107 160.649 283.107 160.649L281.91 165.853C283.139 164.209 288.181 166.744 287.525 169.07C286.868 171.396 281.893 169.597 281.893 169.597L281.261 174.163C282.823 172.017 287.314 174.403 286.169 177.057C285.025 179.71 280.656 177.158 280.656 177.158L280.074 181.54C282.452 181.222 284.405 182.46 283.414 184.57L281.491 184.144L281.134 185.477C280.259 185.112 279.518 184.351 279.518 184.351L279.429 188.864L280.195 188.978L280.144 189.171C280.144 189.171 285.289 191.141 285.348 193.722C285.406 196.302 279.059 193.221 279.059 193.221L278.953 197.534C284.639 198.071 284.395 200.373 284.395 200.373C284.131 204.248 277.858 202.371 277.858 202.371L276.665 207.575C277.908 205.936 283.052 208.497 282.395 210.823C281.737 213.149 276.666 211.324 276.666 211.324L276.045 215.893C277.624 213.752 282.205 216.162 281.053 218.813C279.902 221.465 275.444 218.889 275.444 218.889L274.872 223.274C277.37 222.957 279.423 224.296 278.188 226.53C276.952 228.763 274.321 226.086 274.321 226.086L274.252 230.603L336.29 240.052L340.459 197.206Z" fill="#8662EA"/>
<path d="M344.942 193.504L344.919 193.499L349.133 151.502L291.245 138.727L289.898 143.754C289.898 143.754 294.946 145.698 294.991 148.275C295.037 150.852 288.812 147.804 288.812 147.804L288.689 152.111C294.274 152.621 294.024 154.921 294.024 154.921C293.746 158.793 287.591 156.947 287.591 156.947L286.393 162.15C287.623 160.506 292.665 163.041 292.008 165.367C291.351 167.693 286.376 165.894 286.376 165.894L285.745 170.46C287.306 168.314 291.797 170.701 290.653 173.354C289.509 176.007 285.14 173.455 285.14 173.455L284.558 177.837C286.935 177.519 288.888 178.757 287.898 180.867L285.974 180.441L285.617 181.775C284.742 181.409 284.001 180.648 284.001 180.648L283.913 185.161L284.679 185.276L284.628 185.468C284.628 185.468 289.773 187.439 289.831 190.019C289.89 192.599 283.542 189.518 283.542 189.518L283.437 193.831C289.123 194.368 288.878 196.67 288.878 196.67C288.615 200.546 282.342 198.668 282.342 198.668L281.149 203.873C282.392 202.233 287.536 204.795 286.879 207.121C286.222 209.446 281.15 207.622 281.15 207.622L280.529 212.19C282.108 210.049 286.688 212.46 285.537 215.111C284.386 217.762 279.928 215.186 279.928 215.186L279.356 219.571C281.853 219.254 283.907 220.593 282.671 222.827C281.436 225.061 278.804 222.383 278.804 222.383L278.735 226.901L340.773 236.35L344.942 193.504Z" fill="#E1DBFC"/>
<path d="M289.211 228.847C289.134 228.837 289.208 227.594 289.406 225.355C289.63 223.062 289.943 219.84 290.329 215.881C291.147 207.887 292.293 196.844 293.695 184.66C295.097 172.472 296.554 161.457 297.79 153.512C298.402 149.538 298.943 146.329 299.361 144.119C299.775 141.908 300.04 140.693 300.118 140.705C300.195 140.717 300.076 141.956 299.794 144.185C299.5 146.47 299.087 149.679 298.579 153.622C297.545 161.589 296.215 172.607 294.814 184.789C293.413 196.968 292.14 207.998 291.12 215.971C290.611 219.957 290.176 223.181 289.841 225.405C289.509 227.631 289.289 228.856 289.211 228.847Z" fill="#F191A5"/>
<path opacity="0.41" d="M310.935 138.662L310.2 147.002L338.12 152.122L338.315 145.21L310.935 138.662Z" fill="#AB9DFC"/>
<path d="M341.282 165.819C341.268 165.968 339.128 165.911 335.684 165.59C332.242 165.269 327.5 164.657 322.308 163.715C317.114 162.769 312.46 161.673 309.126 160.761C305.79 159.851 303.767 159.151 303.805 159.007C303.847 158.85 305.94 159.277 309.312 159.987C312.683 160.698 317.341 161.665 322.51 162.607C327.677 163.545 332.376 164.278 335.783 164.799C339.188 165.322 341.297 165.659 341.282 165.819Z" fill="#3F2C7E"/>
<path d="M329.828 168.873C329.833 169.164 323.657 169.399 316.126 168.382C308.589 167.389 302.692 165.545 302.773 165.265C302.854 164.944 308.819 166.284 316.276 167.266C323.725 168.272 329.834 168.543 329.828 168.873Z" fill="#3F2C7E"/>
<path d="M339.478 179.686C339.443 179.995 331.297 179.346 321.284 178.235C311.268 177.123 303.18 175.973 303.213 175.664C303.247 175.355 311.392 176.005 321.408 177.116C331.421 178.226 339.512 179.378 339.478 179.686Z" fill="#3F2C7E"/>
<path d="M339.136 185.824C339.123 185.976 337.079 185.945 333.787 185.724C330.496 185.504 325.958 185.083 320.962 184.463C315.966 183.842 311.462 183.139 308.216 182.548C304.97 181.957 302.981 181.486 303.005 181.335C303.03 181.179 305.063 181.37 308.334 181.76C311.714 182.18 316.171 182.733 321.1 183.346C326.027 183.957 330.484 184.512 333.864 184.932C337.131 185.355 339.15 185.667 339.136 185.824Z" fill="#3F2C7E"/>
<path d="M317.485 189.659C317.45 189.967 313.995 189.824 309.769 189.338C305.543 188.851 302.146 188.206 302.182 187.897C302.217 187.588 305.672 187.732 309.898 188.219C314.124 188.705 317.521 189.35 317.485 189.659Z" fill="#3F2C7E"/>
<path d="M341.092 200.161C341.071 200.319 338.793 200.142 335.126 199.796C331.357 199.443 326.343 198.974 320.801 198.455C315.251 197.994 310.232 197.578 306.46 197.264C302.787 196.962 300.516 196.737 300.523 196.578C300.529 196.426 302.814 196.37 306.504 196.469C310.194 196.568 315.287 196.839 320.9 197.333C326.51 197.83 331.573 198.455 335.222 199.005C338.873 199.554 341.113 200.011 341.092 200.161Z" fill="#3F2C7E"/>
<path d="M336.3 206.077C336.252 206.384 328.32 205.423 318.584 203.93C308.844 202.437 300.99 200.977 301.037 200.67C301.085 200.362 309.016 201.323 318.754 202.816C328.491 204.31 336.346 205.769 336.3 206.077Z" fill="#3F2C7E"/>
<path d="M314.15 208.161C314.099 208.468 311.158 208.24 307.58 207.65C304.002 207.061 301.144 206.334 301.194 206.027C301.244 205.721 304.185 205.949 307.763 206.538C311.342 207.128 314.201 207.855 314.15 208.161Z" fill="#3F2C7E"/>
<mask id="mask0_39_3701" style="mask-type:luminance" maskUnits="userSpaceOnUse" x="0" y="-325" width="663" height="663">
<path d="M662.141 -185.073L139.927 -325L-5.2139e-05 197.214L522.214 337.141L662.141 -185.073Z" fill="white"/>
</mask>
<g mask="url(#mask0_39_3701)">
<mask id="mask1_39_3701" style="mask-type:luminance" maskUnits="userSpaceOnUse" x="498" y="51" width="139" height="97">
<path d="M526.286 105.326C539.555 103.7 551.375 109.313 566.695 114.835C582.015 120.359 615.874 147.144 615.874 147.144L636.822 125.662C611.059 101.988 576.003 87.7566 560.691 82.2972C559.921 79.0584 558.247 72.256 556.343 66.0904C553.733 57.6393 547.812 58.4047 547.812 58.4047C540.229 47.001 530.427 53.0232 530.427 53.0232C524.951 49.9932 520.785 55.0639 520.785 55.0639L520.794 55.0743C519.071 53.8099 517.168 52.8982 515.113 52.6341C505.51 51.3998 503.851 66.0326 503.851 66.0326C503.258 69.0551 506.794 71.4287 509.356 69.5585C511.879 67.7169 511.066 63.055 514.599 62.7982C518.131 62.5413 518.825 73.6302 518.825 73.6302C518.825 73.6302 519.687 82.1451 520.981 86.4445C522.275 90.7438 520.195 90.1809 520.195 90.1809C520.195 90.1809 515.139 85.4006 510.846 77.2026C506.554 69.0046 500.491 72.3705 500.491 72.3705C496.409 74.7949 498.817 76.2651 501.716 78.4882C504.613 80.712 503.304 81.2342 508.212 92.9263C513.12 104.617 526.286 105.326 526.286 105.326ZM531.022 69.1723C531.022 69.1723 529.156 64.6514 525.915 60.325L526.5 60.925C532.921 62.0725 531.022 69.1723 531.022 69.1723Z" fill="white"/>
</mask>
<g mask="url(#mask1_39_3701)">
<path d="M511.827 97.833C511.589 97.6328 511.89 96.8838 512.5 96.1618C513.109 95.4395 513.795 95.0156 514.034 95.2161C514.271 95.4163 513.971 96.1653 513.361 96.8873C512.752 97.6096 512.064 98.0332 511.827 97.833Z" fill="#E8A695"/>
</g>
<mask id="mask2_39_3701" style="mask-type:luminance" maskUnits="userSpaceOnUse" x="498" y="51" width="139" height="97">
<path d="M526.286 105.326C539.555 103.7 551.375 109.313 566.695 114.835C582.015 120.359 615.874 147.144 615.874 147.144L636.822 125.662C611.059 101.988 576.003 87.7566 560.691 82.2972C559.921 79.0584 558.247 72.256 556.343 66.0904C553.733 57.6393 547.812 58.4047 547.812 58.4047C540.229 47.001 530.427 53.0232 530.427 53.0232C524.951 49.9932 520.785 55.0639 520.785 55.0639L520.794 55.0743C519.071 53.8099 517.168 52.8982 515.113 52.6341C505.51 51.3998 503.851 66.0326 503.851 66.0326C503.258 69.0551 506.794 71.4287 509.356 69.5585C511.879 67.7169 511.066 63.055 514.599 62.7982C518.131 62.5413 518.825 73.6302 518.825 73.6302C518.825 73.6302 519.687 82.1451 520.981 86.4445C522.275 90.7438 520.195 90.1809 520.195 90.1809C520.195 90.1809 515.139 85.4006 510.846 77.2026C506.554 69.0046 500.491 72.3705 500.491 72.3705C496.409 74.7949 498.817 76.2651 501.716 78.4882C504.613 80.712 503.304 81.2342 508.212 92.9263C513.12 104.617 526.286 105.326 526.286 105.326ZM531.022 69.1723C531.022 69.1723 529.156 64.6514 525.915 60.325L526.5 60.925C532.921 62.0725 531.022 69.1723 531.022 69.1723Z" fill="white"/>
</mask>
<g mask="url(#mask2_39_3701)">
<path d="M510.31 96.906C510.081 96.6947 510.496 95.8734 511.236 95.0709C511.976 94.2674 512.762 93.7883 512.991 93.9996C513.219 94.211 512.805 95.0323 512.063 95.8344C511.324 96.6372 510.539 97.1163 510.31 96.906Z" fill="#E8A695"/>
</g>
<mask id="mask3_39_3701" style="mask-type:luminance" maskUnits="userSpaceOnUse" x="498" y="51" width="139" height="97">
<path d="M526.286 105.326C539.555 103.7 551.375 109.313 566.695 114.835C582.015 120.359 615.874 147.144 615.874 147.144L636.822 125.662C611.059 101.988 576.003 87.7566 560.691 82.2972C559.921 79.0584 558.247 72.256 556.343 66.0904C553.733 57.6393 547.812 58.4047 547.812 58.4047C540.229 47.001 530.427 53.0232 530.427 53.0232C524.951 49.9932 520.785 55.0639 520.785 55.0639L520.794 55.0743C519.071 53.8099 517.168 52.8982 515.113 52.6341C505.51 51.3998 503.851 66.0326 503.851 66.0326C503.258 69.0551 506.794 71.4287 509.356 69.5585C511.879 67.7169 511.066 63.055 514.599 62.7982C518.131 62.5413 518.825 73.6302 518.825 73.6302C518.825 73.6302 519.687 82.1451 520.981 86.4445C522.275 90.7438 520.195 90.1809 520.195 90.1809C520.195 90.1809 515.139 85.4006 510.846 77.2026C506.554 69.0046 500.491 72.3705 500.491 72.3705C496.409 74.7949 498.817 76.2651 501.716 78.4882C504.613 80.712 503.304 81.2342 508.212 92.9263C513.12 104.617 526.286 105.326 526.286 105.326ZM531.022 69.1723C531.022 69.1723 529.156 64.6514 525.915 60.325L526.5 60.925C532.921 62.0725 531.022 69.1723 531.022 69.1723Z" fill="white"/>
</mask>
<g mask="url(#mask3_39_3701)">
<path d="M499.377 75.6013C499.614 75.199 500.457 75.2549 501.262 75.7269C502.067 76.199 502.529 76.9081 502.293 77.3107C502.058 77.7132 501.213 77.656 500.408 77.184C499.602 76.7117 499.141 76.0026 499.377 75.6013Z" fill="#F9ECDE"/>
</g>
<mask id="mask4_39_3701" style="mask-type:luminance" maskUnits="userSpaceOnUse" x="498" y="51" width="139" height="97">
<path d="M526.286 105.326C539.555 103.7 551.375 109.313 566.695 114.835C582.015 120.359 615.874 147.144 615.874 147.144L636.822 125.662C611.059 101.988 576.003 87.7566 560.691 82.2972C559.921 79.0584 558.247 72.256 556.343 66.0904C553.733 57.6393 547.812 58.4047 547.812 58.4047C540.229 47.001 530.427 53.0232 530.427 53.0232C524.951 49.9932 520.785 55.0639 520.785 55.0639L520.794 55.0743C519.071 53.8099 517.168 52.8982 515.113 52.6341C505.51 51.3998 503.851 66.0326 503.851 66.0326C503.258 69.0551 506.794 71.4287 509.356 69.5585C511.879 67.7169 511.066 63.055 514.599 62.7982C518.131 62.5413 518.825 73.6302 518.825 73.6302C518.825 73.6302 519.687 82.1451 520.981 86.4445C522.275 90.7438 520.195 90.1809 520.195 90.1809C520.195 90.1809 515.139 85.4006 510.846 77.2026C506.554 69.0046 500.491 72.3705 500.491 72.3705C496.409 74.7949 498.817 76.2651 501.716 78.4882C504.613 80.712 503.304 81.2342 508.212 92.9263C513.12 104.617 526.286 105.326 526.286 105.326ZM531.022 69.1723C531.022 69.1723 529.156 64.6514 525.915 60.325L526.5 60.925C532.921 62.0725 531.022 69.1723 531.022 69.1723Z" fill="white"/>
</mask>
<g mask="url(#mask4_39_3701)">
<path d="M526.286 105.326C539.555 103.7 551.375 109.313 566.695 114.835C582.015 120.359 615.874 147.144 615.874 147.144L636.822 125.662C611.059 101.988 576.003 87.7566 560.691 82.2972C559.921 79.0584 558.247 72.256 556.343 66.0904C553.733 57.6393 547.812 58.4047 547.812 58.4047C540.229 47.001 530.427 53.0232 530.427 53.0232C524.951 49.9932 520.785 55.0639 520.785 55.0639L520.794 55.0743C519.071 53.8099 517.168 52.8982 515.113 52.6341C505.51 51.3998 503.851 66.0326 503.851 66.0326C503.258 69.0551 506.794 71.4287 509.356 69.5585C511.879 67.7169 511.066 63.055 514.599 62.7982C518.131 62.5413 518.825 73.6302 518.825 73.6302C518.825 73.6302 519.687 82.1451 520.981 86.4445C522.275 90.7438 520.195 90.1809 520.195 90.1809C520.195 90.1809 515.139 85.4006 510.846 77.2026C506.554 69.0046 500.491 72.3705 500.491 72.3705C496.409 74.7949 498.817 76.2651 501.716 78.4882C504.613 80.712 503.304 81.2342 508.212 92.9263C513.12 104.617 526.286 105.326 526.286 105.326ZM531.022 69.1723C531.022 69.1723 529.156 64.6514 525.915 60.325L526.5 60.925C532.921 62.0725 531.022 69.1723 531.022 69.1723Z" fill="#F4BBA2"/>
<path d="M540.594 70.8705C540.413 70.8557 540.441 69.6609 540.17 67.7973C540.044 66.8646 539.797 65.7709 539.441 64.5862C539.059 63.4092 538.552 62.1451 537.88 60.8859C537.191 59.6355 536.407 58.522 535.628 57.56C534.829 56.616 534.046 55.8131 533.332 55.1986C531.917 53.9562 530.9 53.329 530.986 53.1694C531.041 53.0534 532.211 53.4363 533.827 54.5756C534.638 55.1377 535.523 55.9211 536.412 56.8813C537.28 57.8582 538.139 59.0243 538.87 60.3496C539.584 61.6838 540.092 63.0389 540.438 64.2992C540.759 65.5673 540.933 66.7369 540.963 67.722C541.038 69.6967 540.721 70.8868 540.594 70.8705Z" fill="#E8A695"/>
<path d="M534.849 71.3003C534.672 71.0502 535.143 70.4389 536.006 70.2984C536.869 70.1569 537.51 70.585 537.423 70.8786C537.343 71.1838 536.791 71.3036 536.188 71.4107C535.583 71.5015 535.022 71.5639 534.849 71.3003Z" fill="#E8A695"/>
<path d="M524.484 72.0546C524.346 72.0156 524.277 71.669 524.514 71.1862C524.743 70.7069 525.329 70.1744 526.111 69.9654C526.894 69.7543 527.668 69.9223 528.105 70.2232C528.552 70.5232 528.665 70.8579 528.566 70.9601C528.34 71.1737 527.483 70.7292 526.402 71.053C525.307 71.3126 524.787 72.1269 524.484 72.0546Z" fill="#E8A695"/>
<path d="M515.301 59.5419C515.606 59.6034 515.711 60.3603 515.534 61.2321C515.359 62.1051 514.969 62.7619 514.664 62.7004C514.359 62.6389 514.255 61.8822 514.431 61.0092C514.606 60.1382 514.996 59.4804 515.301 59.5419Z" fill="#E8A695"/>
<path d="M513.201 59.9015C513.503 59.8303 513.912 60.4672 514.115 61.323C514.318 62.1799 514.236 62.9326 513.934 63.0038C513.631 63.0751 513.222 62.4382 513.02 61.5813C512.817 60.7255 512.898 59.9738 513.201 59.9015Z" fill="#E8A695"/>
<path d="M519.858 54.3274C520.009 54.07 522.122 55.0883 524.105 57.14C526.1 59.1824 527.055 61.3234 526.794 61.4662C526.517 61.6325 525.187 59.8544 523.297 57.9242C521.422 55.9812 519.684 54.5996 519.858 54.3274Z" fill="#E8A695"/>
</g>
<mask id="mask5_39_3701" style="mask-type:luminance" maskUnits="userSpaceOnUse" x="498" y="51" width="139" height="97">
<path d="M526.286 105.326C539.555 103.7 551.375 109.313 566.695 114.835C582.015 120.359 615.874 147.144 615.874 147.144L636.822 125.662C611.059 101.988 576.003 87.7566 560.691 82.2972C559.921 79.0584 558.247 72.256 556.343 66.0904C553.733 57.6393 547.812 58.4047 547.812 58.4047C540.229 47.001 530.427 53.0232 530.427 53.0232C524.951 49.9932 520.785 55.0639 520.785 55.0639L520.794 55.0743C519.071 53.8099 517.168 52.8982 515.113 52.6341C505.51 51.3998 503.851 66.0326 503.851 66.0326C503.258 69.0551 506.794 71.4287 509.356 69.5585C511.879 67.7169 511.066 63.055 514.599 62.7982C518.131 62.5413 518.825 73.6302 518.825 73.6302C518.825 73.6302 519.687 82.1451 520.981 86.4445C522.275 90.7438 520.195 90.1809 520.195 90.1809C520.195 90.1809 515.139 85.4006 510.846 77.2026C506.554 69.0046 500.491 72.3705 500.491 72.3705C496.409 74.7949 498.817 76.2651 501.716 78.4882C504.613 80.712 503.304 81.2342 508.212 92.9263C513.12 104.617 526.286 105.326 526.286 105.326ZM531.022 69.1723C531.022 69.1723 529.156 64.6514 525.915 60.325L526.5 60.925C532.921 62.0725 531.022 69.1723 531.022 69.1723Z" fill="white"/>
</mask>
<g mask="url(#mask5_39_3701)">
<path d="M500.41 75.8166C500.674 75.4318 501.554 75.578 502.376 76.1419C503.197 76.7057 503.65 77.475 503.385 77.8597C503.121 78.2445 502.241 78.0983 501.419 77.5345C500.599 76.9699 500.147 76.2006 500.41 75.8166Z" fill="#F9ECDE"/>
</g>
<mask id="mask6_39_3701" style="mask-type:luminance" maskUnits="userSpaceOnUse" x="498" y="51" width="139" height="97">
<path d="M526.286 105.326C539.555 103.7 551.375 109.313 566.695 114.835C582.015 120.359 615.874 147.144 615.874 147.144L636.822 125.662C611.059 101.988 576.003 87.7566 560.691 82.2972C559.921 79.0584 558.247 72.256 556.343 66.0904C553.733 57.6393 547.812 58.4047 547.812 58.4047C540.229 47.001 530.427 53.0232 530.427 53.0232C524.951 49.9932 520.785 55.0639 520.785 55.0639L520.794 55.0743C519.071 53.8099 517.168 52.8982 515.113 52.6341C505.51 51.3998 503.851 66.0326 503.851 66.0326C503.258 69.0551 506.794 71.4287 509.356 69.5585C511.879 67.7169 511.066 63.055 514.599 62.7982C518.131 62.5413 518.825 73.6302 518.825 73.6302C518.825 73.6302 519.687 82.1451 520.981 86.4445C522.275 90.7438 520.195 90.1809 520.195 90.1809C520.195 90.1809 515.139 85.4006 510.846 77.2026C506.554 69.0046 500.491 72.3705 500.491 72.3705C496.409 74.7949 498.817 76.2651 501.716 78.4882C504.613 80.712 503.304 81.2342 508.212 92.9263C513.12 104.617 526.286 105.326 526.286 105.326ZM531.022 69.1723C531.022 69.1723 529.156 64.6514 525.915 60.325L526.5 60.925C532.921 62.0725 531.022 69.1723 531.022 69.1723Z" fill="white"/>
</mask>
<g mask="url(#mask6_39_3701)">
<g opacity="0.43">
<path d="M519.602 86.2001C520.053 85.5318 521.888 85.8947 524.484 87.0269L523.79 86.727C525.355 86.8228 527.124 87.3997 528.767 88.2732C530.43 89.1554 531.933 90.2408 533.455 91.3583C539.816 96.0787 544.22 100.916 543.293 102.165C542.367 103.414 536.461 100.601 530.099 95.8806C528.549 94.7374 527.173 93.582 526.012 92.7066C524.837 91.8198 523.817 91.1681 522.888 90.7176L522.195 90.4177C520.173 88.4342 519.151 86.8674 519.602 86.2001Z" fill="#F29F83"/>
</g>
</g>
<mask id="mask7_39_3701" style="mask-type:luminance" maskUnits="userSpaceOnUse" x="498" y="51" width="139" height="97">
<path d="M526.286 105.326C539.555 103.7 551.375 109.313 566.695 114.835C582.015 120.359 615.874 147.144 615.874 147.144L636.822 125.662C611.059 101.988 576.003 87.7566 560.691 82.2972C559.921 79.0584 558.247 72.256 556.343 66.0904C553.733 57.6393 547.812 58.4047 547.812 58.4047C540.229 47.001 530.427 53.0232 530.427 53.0232C524.951 49.9932 520.785 55.0639 520.785 55.0639L520.794 55.0743C519.071 53.8099 517.168 52.8982 515.113 52.6341C505.51 51.3998 503.851 66.0326 503.851 66.0326C503.258 69.0551 506.794 71.4287 509.356 69.5585C511.879 67.7169 511.066 63.055 514.599 62.7982C518.131 62.5413 518.825 73.6302 518.825 73.6302C518.825 73.6302 519.687 82.1451 520.981 86.4445C522.275 90.7438 520.195 90.1809 520.195 90.1809C520.195 90.1809 515.139 85.4006 510.846 77.2026C506.554 69.0046 500.491 72.3705 500.491 72.3705C496.409 74.7949 498.817 76.2651 501.716 78.4882C504.613 80.712 503.304 81.2342 508.212 92.9263C513.12 104.617 526.286 105.326 526.286 105.326ZM531.022 69.1723C531.022 69.1723 529.156 64.6514 525.915 60.325L526.5 60.925C532.921 62.0725 531.022 69.1723 531.022 69.1723Z" fill="white"/>
</mask>
<g mask="url(#mask7_39_3701)">
<g opacity="0.43">
<path d="M511.921 64.626C511.579 64.7372 511.04 64.5815 510.81 63.7565C510.577 62.935 510.988 61.647 512.055 60.7845C512.588 60.3507 513.284 59.9832 514.2 59.8546C514.643 59.7865 515.198 59.8131 515.69 59.9203C516.124 60.0086 516.559 60.1586 516.971 60.3576C518.644 61.1909 519.666 62.6255 520.315 63.9436C521.545 66.5053 521.786 69.0257 521.511 70.8193C521.231 72.6215 520.477 73.6419 519.713 73.6354C518.926 73.6316 518.255 72.685 517.565 71.3481C516.878 70.0143 516.123 68.2225 515.259 66.4226C514.857 65.5852 514.489 65.0668 514.34 64.8298L514.228 64.6509L514.221 64.639L514.22 64.6377L514.219 64.6363C514.475 63.7544 514.29 64.3933 514.347 64.196L514.346 64.2023L514.341 64.2156L514.327 64.2657L514.314 64.3594C514.295 64.417 514.306 64.5667 514.299 64.5233C514.283 64.4205 514.133 64.3288 513.974 64.2729C513.647 64.1751 513.315 64.084 512.969 64.1356C512.603 64.1911 512.294 64.5155 511.921 64.626Z" fill="#F29F83"/>
</g>
</g>
<mask id="mask8_39_3701" style="mask-type:luminance" maskUnits="userSpaceOnUse" x="498" y="51" width="139" height="97">
<path d="M526.286 105.326C539.555 103.7 551.375 109.313 566.695 114.835C582.015 120.359 615.874 147.144 615.874 147.144L636.822 125.662C611.059 101.988 576.003 87.7566 560.691 82.2972C559.921 79.0584 558.247 72.256 556.343 66.0904C553.733 57.6393 547.812 58.4047 547.812 58.4047C540.229 47.001 530.427 53.0232 530.427 53.0232C524.951 49.9932 520.785 55.0639 520.785 55.0639L520.794 55.0743C519.071 53.8099 517.168 52.8982 515.113 52.6341C505.51 51.3998 503.851 66.0326 503.851 66.0326C503.258 69.0551 506.794 71.4287 509.356 69.5585C511.879 67.7169 511.066 63.055 514.599 62.7982C518.131 62.5413 518.825 73.6302 518.825 73.6302C518.825 73.6302 519.687 82.1451 520.981 86.4445C522.275 90.7438 520.195 90.1809 520.195 90.1809C520.195 90.1809 515.139 85.4006 510.846 77.2026C506.554 69.0046 500.491 72.3705 500.491 72.3705C496.409 74.7949 498.817 76.2651 501.716 78.4882C504.613 80.712 503.304 81.2342 508.212 92.9263C513.12 104.617 526.286 105.326 526.286 105.326ZM531.022 69.1723C531.022 69.1723 529.156 64.6514 525.915 60.325L526.5 60.925C532.921 62.0725 531.022 69.1723 531.022 69.1723Z" fill="white"/>
</mask>
<g mask="url(#mask8_39_3701)">
<g opacity="0.43">
<path d="M532.503 69.6407C531.766 69.3547 531.304 68.6165 530.834 67.9442C530.374 67.2501 529.936 66.5484 529.499 65.734C529.04 64.9326 528.678 64.1885 528.332 63.431C528.011 62.6765 527.631 61.8929 527.778 61.1164C527.91 60.3793 528.775 59.7536 530.209 59.9196C530.916 59.996 531.705 60.3015 532.466 60.8176C533.21 61.345 533.911 62.0904 534.425 63.0039C534.928 63.9233 535.188 64.913 535.24 65.8238C535.275 66.7421 535.117 67.5727 534.806 68.2138C534.187 69.5177 533.197 69.9207 532.503 69.6407Z" fill="#F29F83"/>
</g>
</g>
<mask id="mask9_39_3701" style="mask-type:luminance" maskUnits="userSpaceOnUse" x="498" y="51" width="139" height="97">
<path d="M526.286 105.326C539.555 103.7 551.375 109.313 566.695 114.835C582.015 120.359 615.874 147.144 615.874 147.144L636.822 125.662C611.059 101.988 576.003 87.7566 560.691 82.2972C559.921 79.0584 558.247 72.256 556.343 66.0904C553.733 57.6393 547.812 58.4047 547.812 58.4047C540.229 47.001 530.427 53.0232 530.427 53.0232C524.951 49.9932 520.785 55.0639 520.785 55.0639L520.794 55.0743C519.071 53.8099 517.168 52.8982 515.113 52.6341C505.51 51.3998 503.851 66.0326 503.851 66.0326C503.258 69.0551 506.794 71.4287 509.356 69.5585C511.879 67.7169 511.066 63.055 514.599 62.7982C518.131 62.5413 518.825 73.6302 518.825 73.6302C518.825 73.6302 519.687 82.1451 520.981 86.4445C522.275 90.7438 520.195 90.1809 520.195 90.1809C520.195 90.1809 515.139 85.4006 510.846 77.2026C506.554 69.0046 500.491 72.3705 500.491 72.3705C496.409 74.7949 498.817 76.2651 501.716 78.4882C504.613 80.712 503.304 81.2342 508.212 92.9263C513.12 104.617 526.286 105.326 526.286 105.326ZM531.022 69.1723C531.022 69.1723 529.156 64.6514 525.915 60.325L526.5 60.925C532.921 62.0725 531.022 69.1723 531.022 69.1723Z" fill="white"/>
</mask>
<g mask="url(#mask9_39_3701)">
<g opacity="0.43">
<path d="M508.102 93.395C508.51 93.2267 509.313 94.812 511.477 96.8426C513.62 98.862 517.323 101.205 522.515 102.321C525.113 102.909 528.059 103.242 531.321 103.486C532.977 103.612 534.688 103.743 536.45 103.877C538.24 104.041 540.085 104.283 541.977 104.501C549.523 105.529 557.744 107.422 566.005 110.46C574.271 113.494 581.786 117.304 588.23 121.352C594.668 125.414 600.093 129.633 604.284 133.554C612.732 141.355 616.566 147.401 616.056 147.818C615.389 148.411 610.537 143.371 601.72 136.6C592.95 129.815 579.919 121.532 564.074 115.749C556.175 112.843 548.37 110.889 541.185 109.627C539.38 109.351 537.631 109.041 535.911 108.796C534.16 108.566 532.459 108.342 530.815 108.126C527.485 107.67 524.3 107.077 521.458 106.157C515.692 104.367 511.704 101.052 509.812 98.2661C507.884 95.4466 507.791 93.4853 508.102 93.395Z" fill="#F29F83"/>
</g>
</g>
</g>
<mask id="mask10_39_3701" style="mask-type:luminance" maskUnits="userSpaceOnUse" x="0" y="-325" width="663" height="663">
<path d="M662.141 -185.073L139.927 -325L-5.2139e-05 197.214L522.214 337.141L662.141 -185.073Z" fill="white"/>
</mask>
<g mask="url(#mask10_39_3701)">
<mask id="mask11_39_3701" style="mask-type:luminance" maskUnits="userSpaceOnUse" x="65" y="-18" width="110" height="140">
<path d="M106.761 93.9371C107.801 97.6514 110.783 105.114 118.732 109.796C129.658 116.231 130.53 114.657 132.726 117.576C134.922 120.496 136.368 122.918 138.832 118.859C138.832 118.859 141.485 114.034 134.099 108.459C119.503 97.4395 127.431 98.8749 127.431 98.8749L127.419 98.871C131.867 99.8593 137.748 100.515 137.748 100.515C137.748 100.515 149.198 104.724 152.161 105.913C152.161 105.913 153.107 106.424 162.558 111.163C172.398 116.097 176.828 110.818 173.219 107.713C171.862 106.545 160.584 99.9616 160.584 99.9616C159.677 99.1807 158.618 98.3673 157.476 97.5486C158.676 96.214 160.654 93.1621 158.463 89.1129C158.463 89.1129 164.579 79.3684 153.248 71.6757C153.248 71.6757 154.07 65.7618 145.645 63.0722C139.499 61.1094 132.713 59.3691 129.482 58.5688C124.169 43.2062 110.275 8.01498 86.85 -17.9753L65.1683 2.76591C65.1683 2.76591 91.627 36.8796 97.0025 52.2524C102.094 66.8134 105.572 79.0403 106.368 91.7157L106.248 91.6754C106.248 91.6754 106.297 92.0059 106.411 92.544C106.434 92.9765 106.463 93.4073 106.479 93.8397L106.761 93.9371ZM150.524 92.9643L150.754 93.1627C146.259 90.4388 142.321 88.3632 142.321 88.3632C142.321 88.3632 149.44 86.5314 150.524 92.9643Z" fill="white"/>
</mask>
<g mask="url(#mask11_39_3701)">
<path d="M106.761 93.9371C107.801 97.6514 110.783 105.114 118.732 109.796C129.658 116.231 130.53 114.657 132.726 117.576C134.922 120.496 136.368 122.918 138.832 118.859C138.832 118.859 141.485 114.034 134.099 108.459C119.503 97.4395 127.431 98.8749 127.431 98.8749L127.419 98.871C131.867 99.8593 137.748 100.515 137.748 100.515C137.748 100.515 149.198 104.724 152.161 105.913C152.161 105.913 153.107 106.424 162.558 111.163C172.398 116.097 176.828 110.818 173.219 107.713C171.862 106.545 160.584 99.9616 160.584 99.9616C159.677 99.1807 158.618 98.3673 157.476 97.5486C158.676 96.214 160.654 93.1621 158.463 89.1129C158.463 89.1129 164.579 79.3684 153.248 71.6757C153.248 71.6757 154.07 65.7618 145.645 63.0722C139.499 61.1094 132.713 59.3691 129.482 58.5688C124.169 43.2062 110.275 8.01498 86.85 -17.9753L65.1683 2.76591C65.1683 2.76591 91.627 36.8796 97.0025 52.2524C102.094 66.8134 105.572 79.0403 106.368 91.7157L106.248 91.6754C106.248 91.6754 106.297 92.0059 106.411 92.544C106.434 92.9765 106.463 93.4073 106.479 93.8397L106.761 93.9371ZM150.524 92.9643L150.754 93.1627C146.259 90.4388 142.321 88.3632 142.321 88.3632C142.321 88.3632 149.44 86.5314 150.524 92.9643Z" fill="#F4BBA2"/>
<path d="M143.298 80.1829C143.276 80.0472 144.314 79.709 146.062 79.7205C147.795 79.7242 150.255 80.178 152.599 81.5176C154.947 82.8558 156.589 84.742 157.473 86.2326C158.372 87.7319 158.609 88.7976 158.481 88.8471C158.324 88.9176 157.832 87.9869 156.817 86.6833C155.813 85.3813 154.205 83.73 152.041 82.495C149.877 81.2603 147.639 80.7169 146.006 80.5146C144.369 80.3046 143.317 80.3544 143.298 80.1829Z" fill="#E8A695"/>
<path d="M139.16 94.7518C138.977 94.492 139.584 93.7374 139.769 92.6411C139.998 91.5524 139.707 90.6294 139.973 90.4535C140.099 90.3769 140.381 90.5417 140.622 90.9751C140.864 91.4018 141.016 92.1041 140.875 92.8494C140.733 93.5943 140.337 94.1929 139.955 94.5016C139.573 94.8179 139.25 94.8687 139.16 94.7518Z" fill="#E8A695"/>
<path d="M144.803 75.1786C144.674 74.9084 145.19 74.3146 145.166 73.5754C145.179 72.8362 144.653 72.2509 144.78 71.9787C144.845 71.8468 145.143 71.8138 145.516 72.0582C145.88 72.2902 146.284 72.8417 146.293 73.5678C146.296 74.2941 145.9 74.8516 145.54 75.0888C145.17 75.3371 144.87 75.3093 144.803 75.1786Z" fill="#E8A695"/>
<path d="M142.122 84.6821C141.96 84.4088 142.328 83.8746 142.513 83.1766C142.732 82.4893 142.711 81.8404 142.995 81.6981C143.133 81.6394 143.354 81.7683 143.517 82.1004C143.681 82.4271 143.752 82.9548 143.595 83.492C143.438 84.0292 143.094 84.4365 142.78 84.6232C142.463 84.8157 142.206 84.8061 142.122 84.6821Z" fill="#E8A695"/>
<path d="M146.877 69.7129C146.892 69.4094 148.494 69.265 150.363 69.8109C152.235 70.3489 153.511 71.3274 153.362 71.5918C153.212 71.8726 151.792 71.3915 150.05 70.8925C148.311 70.3822 146.854 70.031 146.877 69.7129Z" fill="#E8A695"/>
<path d="M116.725 107.725C116.506 107.503 116.933 106.732 117.675 106.003C118.418 105.274 119.197 104.863 119.414 105.085C119.632 105.306 119.207 106.077 118.464 106.807C117.721 107.536 116.942 107.946 116.725 107.725Z" fill="#E8A695"/>
<path d="M150.489 92.6011C150.638 92.3346 152.632 93.1711 154.794 94.7002C156.959 96.2238 158.417 97.8232 158.215 98.0521C158.008 98.2906 156.258 97.1073 154.144 95.6198C152.035 94.1282 150.332 92.8763 150.489 92.6011Z" fill="#E8A695"/>
<path d="M170.28 110.569C169.521 110.192 169.251 109.196 169.675 108.344C170.098 107.491 171.057 107.105 171.815 107.483C172.572 107.86 172.844 108.856 172.42 109.708C171.995 110.56 171.037 110.947 170.28 110.569Z" fill="#F9ECDE"/>
<path d="M135.076 119.685C134.612 119.764 134.128 119.19 133.808 118.463C133.497 117.732 133.409 116.985 133.784 116.702C134.15 116.42 134.954 116.855 135.359 117.792C135.765 118.727 135.532 119.612 135.076 119.685Z" fill="#F9ECDE"/>
</g>
<mask id="mask12_39_3701" style="mask-type:luminance" maskUnits="userSpaceOnUse" x="65" y="-18" width="110" height="140">
<path d="M106.761 93.9371C107.801 97.6514 110.783 105.114 118.732 109.796C129.658 116.231 130.53 114.657 132.726 117.576C134.922 120.496 136.368 122.918 138.832 118.859C138.832 118.859 141.485 114.034 134.099 108.459C119.503 97.4395 127.431 98.8749 127.431 98.8749L127.419 98.871C131.867 99.8593 137.748 100.515 137.748 100.515C137.748 100.515 149.198 104.724 152.161 105.913C152.161 105.913 153.107 106.424 162.558 111.163C172.398 116.097 176.828 110.818 173.219 107.713C171.862 106.545 160.584 99.9616 160.584 99.9616C159.677 99.1807 158.618 98.3673 157.476 97.5486C158.676 96.214 160.654 93.1621 158.463 89.1129C158.463 89.1129 164.579 79.3684 153.248 71.6757C153.248 71.6757 154.07 65.7618 145.645 63.0722C139.499 61.1094 132.713 59.3691 129.482 58.5688C124.169 43.2062 110.275 8.01498 86.85 -17.9753L65.1683 2.76591C65.1683 2.76591 91.627 36.8796 97.0025 52.2524C102.094 66.8134 105.572 79.0403 106.368 91.7157L106.248 91.6754C106.248 91.6754 106.297 92.0059 106.411 92.544C106.434 92.9765 106.463 93.4073 106.479 93.8397L106.761 93.9371ZM150.524 92.9643L150.754 93.1627C146.259 90.4388 142.321 88.3632 142.321 88.3632C142.321 88.3632 149.44 86.5314 150.524 92.9643Z" fill="white"/>
</mask>
<g mask="url(#mask12_39_3701)">
<g opacity="0.43">
<path d="M130.757 114.785C130.576 115.118 128.712 114.581 125.516 113.166C123.919 112.456 121.991 111.505 119.822 110.217C117.658 108.927 115.258 107.259 112.872 105.001C111.703 103.847 110.521 102.565 109.458 101.073C108.401 99.5804 107.432 97.9073 106.658 96.1081C105.075 92.5094 104.185 88.4965 103.457 84.4413C103.083 82.4098 102.762 80.3574 102.347 78.3211C102.128 77.3038 101.906 76.2765 101.683 75.2384C101.468 74.1989 101.242 73.1518 100.943 72.1094C100.393 70.0158 99.8529 67.881 99.1463 65.7539C98.8015 64.6888 98.5069 63.6009 98.1188 62.5322C97.7372 61.4612 97.3532 60.3836 96.967 59.2996C93.8307 50.6317 89.8978 42.6965 86.1196 35.5789C82.3136 28.4688 78.5741 22.1963 75.4297 16.9163C69.1019 6.37376 65.2497 -0.261488 65.918 -0.715867C66.5353 -1.13523 71.5256 4.66912 78.7614 14.736C82.3607 19.7818 86.5045 25.9172 90.6512 33.0512C94.7681 40.1919 98.9775 48.3131 102.254 57.36C102.655 58.4928 103.054 59.6187 103.45 60.737C103.85 61.8544 104.155 62.9985 104.505 64.116C105.224 66.3468 105.767 68.5979 106.306 70.8056C106.598 71.903 106.817 73.0092 107.019 74.1087C107.229 75.2048 107.436 76.2911 107.641 77.3663C108.022 79.5251 108.283 81.6114 108.579 83.6024C109.148 87.5868 109.812 91.2237 110.986 94.3509C112.118 97.4842 113.835 100.059 115.743 102.238C119.629 106.549 123.837 109.26 126.601 111.26C129.412 113.233 130.946 114.435 130.757 114.785Z" fill="#F29F83"/>
</g>
</g>
<mask id="mask13_39_3701" style="mask-type:luminance" maskUnits="userSpaceOnUse" x="65" y="-18" width="110" height="140">
<path d="M106.761 93.9371C107.801 97.6514 110.783 105.114 118.732 109.796C129.658 116.231 130.53 114.657 132.726 117.576C134.922 120.496 136.368 122.918 138.832 118.859C138.832 118.859 141.485 114.034 134.099 108.459C119.503 97.4395 127.431 98.8749 127.431 98.8749L127.419 98.871C131.867 99.8593 137.748 100.515 137.748 100.515C137.748 100.515 149.198 104.724 152.161 105.913C152.161 105.913 153.107 106.424 162.558 111.163C172.398 116.097 176.828 110.818 173.219 107.713C171.862 106.545 160.584 99.9616 160.584 99.9616C159.677 99.1807 158.618 98.3673 157.476 97.5486C158.676 96.214 160.654 93.1621 158.463 89.1129C158.463 89.1129 164.579 79.3684 153.248 71.6757C153.248 71.6757 154.07 65.7618 145.645 63.0722C139.499 61.1094 132.713 59.3691 129.482 58.5688C124.169 43.2062 110.275 8.01498 86.85 -17.9753L65.1683 2.76591C65.1683 2.76591 91.627 36.8796 97.0025 52.2524C102.094 66.8134 105.572 79.0403 106.368 91.7157L106.248 91.6754C106.248 91.6754 106.297 92.0059 106.411 92.544C106.434 92.9765 106.463 93.4073 106.479 93.8397L106.761 93.9371ZM150.524 92.9643L150.754 93.1627C146.259 90.4388 142.321 88.3632 142.321 88.3632C142.321 88.3632 149.44 86.5314 150.524 92.9643Z" fill="white"/>
</mask>
<g mask="url(#mask13_39_3701)">
<g opacity="0.43">
<path d="M171.332 113.731C170.666 115.137 160.316 111.883 148.22 106.466C145.196 105.115 142.335 103.735 139.781 102.451C137.274 101.23 135.079 100.289 133.215 99.7702C131.352 99.2262 129.853 99.1501 128.729 99.1519C127.619 99.1757 126.879 99.2402 126.668 98.886C126.479 98.5817 126.853 97.8389 128.051 97.0679C129.235 96.3212 131.32 95.701 133.779 95.8296C136.24 95.9179 139.006 96.639 141.798 97.6718C144.516 98.7159 147.43 99.9467 150.48 101.309C162.662 106.763 171.998 112.327 171.332 113.731Z" fill="#F29F83"/>
</g>
</g>
<mask id="mask14_39_3701" style="mask-type:luminance" maskUnits="userSpaceOnUse" x="65" y="-18" width="110" height="140">
<path d="M106.761 93.9371C107.801 97.6514 110.783 105.114 118.732 109.796C129.658 116.231 130.53 114.657 132.726 117.576C134.922 120.496 136.368 122.918 138.832 118.859C138.832 118.859 141.485 114.034 134.099 108.459C119.503 97.4395 127.431 98.8749 127.431 98.8749L127.419 98.871C131.867 99.8593 137.748 100.515 137.748 100.515C137.748 100.515 149.198 104.724 152.161 105.913C152.161 105.913 153.107 106.424 162.558 111.163C172.398 116.097 176.828 110.818 173.219 107.713C171.862 106.545 160.584 99.9616 160.584 99.9616C159.677 99.1807 158.618 98.3673 157.476 97.5486C158.676 96.214 160.654 93.1621 158.463 89.1129C158.463 89.1129 164.579 79.3684 153.248 71.6757C153.248 71.6757 154.07 65.7618 145.645 63.0722C139.499 61.1094 132.713 59.3691 129.482 58.5688C124.169 43.2062 110.275 8.01498 86.85 -17.9753L65.1683 2.76591C65.1683 2.76591 91.627 36.8796 97.0025 52.2524C102.094 66.8134 105.572 79.0403 106.368 91.7157L106.248 91.6754C106.248 91.6754 106.297 92.0059 106.411 92.544C106.434 92.9765 106.463 93.4073 106.479 93.8397L106.761 93.9371ZM150.524 92.9643L150.754 93.1627C146.259 90.4388 142.321 88.3632 142.321 88.3632C142.321 88.3632 149.44 86.5314 150.524 92.9643Z" fill="white"/>
</mask>
<g mask="url(#mask14_39_3701)">
<g opacity="0.43">
<path d="M151.696 92.9644C150.907 92.9938 150.189 92.5412 149.511 92.1696C148.833 91.7742 148.199 91.3812 147.552 90.8671C146.888 90.3736 146.346 89.8613 145.789 89.3085C145.255 88.7491 144.632 88.1713 144.458 87.4017C144.284 86.6725 144.79 85.764 146.109 85.3399C147.396 84.9069 149.388 85.1707 150.983 86.4032C152.584 87.6267 153.35 89.4839 153.263 90.8391C153.193 92.2219 152.445 92.9452 151.696 92.9644Z" fill="#F29F83"/>
</g>
</g>
<path d="M94.0974 -30.2633L109.098 -10.2901L67.7013 14.2763L56.1064 0.611345L25.3279 -33.9158L65.1611 -60.3206L94.0974 -30.2633Z" fill="#4A407F"/>
</g>
</svg>
